# xmcd
#
# Track frame offsets:
#	150
#	21284
#	39508
#	54930
#	73422
#	98394
#	115588
#	134825
#	153570
#	170307
#	184844
#
# Disc length: 2678 seconds
#
# Revision: 0
# Processed by: cddbd v1.4PL0 Copyright (c) Steve Scherf et al.
# Submitted via: dBpowerAMP V4.0
#
DISCID=910a740b
DTITLE=Petek Dincoz - Askin Tam Zamani
DYEAR=2002
DGENRE=Turkish
TTITLE0=Kismetsizim
TTITLE1=Allahin Belasi 
TTITLE2=Oksa
TTITLE3=Kuruldum
TTITLE4=Yollarimiz Ayrildi
TTITLE5=Sari Mavi
TTITLE6=Yine Yalnizim
TTITLE7=Aklimi Bulamam
TTITLE8=Zevksiz
TTITLE9=Yaz Deftere
TTITLE10=Foolish Casanova
EXTD=
EXTT0=
EXTT1=
EXTT2=
EXTT3=
EXTT4=
EXTT5=
EXTT6=
EXTT7=
EXTT8=
EXTT9=
EXTT10=
PLAYORDER=
